<svg xmlns="http://www.w3.org/2000/svg" width="1380" height="420" viewBox="0 0 1380 420" role="img" aria-label="GigiLoop verification-first cycle diagram">
  <defs>
    <linearGradient id="accent" x1="0" y1="0" x2="1" y2="0">
      <stop offset="0" stop-color="#1de9ff"/>
      <stop offset="1" stop-color="#7c5cff"/>
    </linearGradient>
    <linearGradient id="gold" x1="0" y1="0" x2="1" y2="0">
      <stop offset="0" stop-color="#ffd23f"/>
      <stop offset="1" stop-color="#ff8a00"/>
    </linearGradient>
    <style>
      .node { fill:#0e1530; stroke:url(#accent); stroke-width:2.5; }
      .lbl { font-family:'Segoe UI',Helvetica,Arial,sans-serif; fill:#eaf1ff; font-weight:700; }
      .sub { font-family:'Segoe UI',Helvetica,Arial,sans-serif; fill:#9fb2d8; font-weight:500; }
      .arr { stroke:#7c5cff; stroke-width:3; fill:none; }
    </style>
  </defs>
  <rect width="1380" height="420" fill="#0a0f1f"/>
  <rect width="1380" height="420" fill="#1de9ff" fill-opacity="0.03"/>
  <g>
    <rect class="node" x="25" y="150" width="170" height="120" rx="16"/>
    <text class="lbl" x="110" y="195" text-anchor="middle" font-size="21">A · WORK</text>
    <text class="sub" x="110" y="222" text-anchor="middle" font-size="14">fix top issue</text>

    <rect class="node" x="245" y="150" width="170" height="120" rx="16"/>
    <text class="lbl" x="330" y="195" text-anchor="middle" font-size="21">B · VERIFY</text>
    <text class="sub" x="330" y="222" text-anchor="middle" font-size="14">targeted evidence</text>

    <rect class="node" x="465" y="150" width="170" height="120" rx="16"/>
    <text class="lbl" x="550" y="195" text-anchor="middle" font-size="21">C · SCORE</text>
    <text class="sub" x="550" y="222" text-anchor="middle" font-size="14">tiered proof</text>

    <rect class="node" x="685" y="150" width="170" height="120" rx="16"/>
    <text class="lbl" x="770" y="195" text-anchor="middle" font-size="20">D · RED-TEAM</text>
    <text class="sub" x="770" y="222" text-anchor="middle" font-size="14">evidence-backed</text>

    <rect class="node" x="905" y="150" width="190" height="120" rx="16"/>
    <text class="lbl" x="1000" y="195" text-anchor="middle" font-size="20">E · RECONCILE</text>
    <text class="sub" x="1000" y="222" text-anchor="middle" font-size="14">critique can lower score</text>

    <rect class="node" x="1145" y="150" width="180" height="120" rx="16"/>
    <text class="lbl" x="1235" y="195" text-anchor="middle" font-size="20">F · DECIDE</text>
    <text class="sub" x="1235" y="222" text-anchor="middle" font-size="14">next / re-strategy</text>
  </g>
  <g class="arr">
    <path d="M195 210 H242"/><path d="M415 210 H462"/><path d="M635 210 H682"/>
    <path d="M855 210 H902"/><path d="M1095 210 H1142"/>
  </g>
  <g fill="#7c5cff">
    <polygon points="242,210 230,204 230,216"/><polygon points="462,210 450,204 450,216"/>
    <polygon points="682,210 670,204 670,216"/><polygon points="902,210 890,204 890,216"/>
    <polygon points="1142,210 1130,204 1130,216"/>
  </g>
  <path d="M1235 270 C1235 360 280 360 110 272" class="arr" stroke-dasharray="7 7"/>
  <polygon points="110,272 123,268 119,281" fill="#7c5cff"/>
  <g>
    <path d="M1235 150 C1235 70 690 70 690 44" class="arr" stroke="url(#gold)"/>
    <polygon points="690,44 697,57 683,57" fill="#ff8a00"/>
    <rect x="560" y="8" width="260" height="40" rx="12" fill="#0e1530" stroke="url(#gold)" stroke-width="2.5"/>
    <text x="690" y="34" text-anchor="middle" font-family="'Segoe UI',Helvetica,Arial,sans-serif" font-size="18" font-weight="800" fill="#ffd23f">FINAL GATE · ALL ≥ 9/10</text>
  </g>
  <text x="690" y="395" text-anchor="middle" class="sub" font-size="15">baseline first · critique is reconciled before completion · final gate verifies the full relevant diff</text>
</svg>
